<svg fill="none" xmlns="http://www.w3.org/2000/svg" viewBox="0 0 435 504"><path d="M245.744 297.342l-.254-40.378-19.239 32.403h-13.164l-19.239-31.01v38.985h-27.213v-88.603h24.555l28.859 47.213 28.1-47.213h24.555l.253 88.603h-27.213z" fill="#E2AB00"/><path fill-rule="evenodd" clip-rule="evenodd" d="M217.559 0L435 126.398v100.504l-.867 150.841-120.52 70.74-96.622 54.573L0 377.801V268.44l.873-140.599 130.68-74.426L217.559 0zm-75.841 93.721L40.784 151.207l-.656 105.573 43.187 24.085V173.448l99.707-55.836-41.304-23.89zm81.718 47.168L123.37 196.926v106.553l100.012 58.506 90.717-54.396.667-114.792-91.33-51.908zm131.254 74.647l40.188 22.907-.669 116.288-90.715 53.246-40.375-23.115 90.904-54.508.667-114.818zm-91.586 215.472l-45.897 25.923L40.055 354.673v-52.07l53.353 29.754 120.068 70.239 49.628 28.412zm-82.365-360.99l52.731 30.502 111.299 63.256 50.176 28.6v-42.931L218.242 46.728l-37.503 23.29z" fill="#E2AB00"/></svg>