<svg width="852" height="985" viewBox="0 0 852 985" fill="none" xmlns="http://www.w3.org/2000/svg">
<path d="M389.219 394.28L430.973 524.424L472.598 394.28H531.953V581.338H486.73V537.657L491.099 448.239L445.876 581.338H416.07L370.719 448.11L375.087 537.657V581.338H329.992V394.28H389.219Z" fill="#E2AB00"/>
<path d="M282.174 133.169L40 269.966V530.349M282.174 133.169L436.492 46L812.5 269.966V433.388M282.174 133.169L436.492 220.529M812.5 433.388V712.435L586.713 848.29M812.5 433.388L658.182 346.028M658.182 346.028V618.205L429.033 756.591M658.182 346.028L436.492 220.529M40 530.349V712.435L436.492 938.677L586.713 848.29M40 530.349L210.706 629.623M586.713 848.29L429.033 756.591M429.033 756.591L210.706 629.623M436.492 220.529L210.706 346.028V629.623" stroke="#E2AB00" stroke-width="78.297"/>
</svg>
