<svg width="45" height="52" viewBox="0 0 45 52" fill="none" xmlns="http://www.w3.org/2000/svg"><path d="m16.014 16.493 1.122-5.605c.331-.066.663-.127.996-.185a26.75 26.75 0 0 1 4.368-.436c1.467 0 3.084.21 4.369.436.37.063.703.126.996.185l1.118 5.605a5.554 5.554 0 0 0 4.457 4.373l2.492.455a7.404 7.404 0 0 0 8.54-5.62l.252-1.088c.963-4.176-.58-8.863-4.857-10.803C35.913 2.018 29.96.108 22.512.086A41.538 41.538 0 0 0 5.082 3.81C.836 5.757-.682 10.426.277 14.568l.259 1.133a7.404 7.404 0 0 0 8.54 5.62l2.492-.455a5.553 5.553 0 0 0 4.45-4.373h-.004Z" fill="#000"/><path d="M37.327 37.106a14.808 14.808 0 1 0-29.617 0 14.808 14.808 0 0 0 29.617 0Zm-12.964-7.404a1.851 1.851 0 0 1 1.85 1.851v7.404a1.851 1.851 0 0 1-1.85 1.851h-5.528a1.851 1.851 0 0 1 0-3.702h3.677v-5.553a1.851 1.851 0 0 1 1.85-1.85Z" fill="#000"/></svg>